<svg width='40' height='40' viewBox="0 0 306 306" fill="none" xmlns="http://www.w3.org/2000/svg">
            <path d="M153 9.49949e-08C68.4994 9.49949e-08 9.49949e-08 68.4994 9.49949e-08 153C9.49949e-08 237.501 68.4994 306 153 306C237.501 306 306 237.501 306 153C306 68.4994 237.501 9.49949e-08 153 9.49949e-08ZM189.242 105.729H166.244C163.519 105.729 160.491 109.315 160.491 114.081V130.688H189.258L184.907 154.371H160.491V225.468H133.349V154.371H108.726V130.688H133.349V116.758C133.349 96.7725 147.215 80.5322 166.244 80.5322H189.242V105.729Z" fill='black' />
</svg>