 <svg width='40' height='40' viewBox="0 0 306 306" fill="none" xmlns="http://www.w3.org/2000/svg">
            <path d="M153 9.49949e-08C68.4994 9.49949e-08 9.49949e-08 68.4994 9.49949e-08 153C9.49949e-08 237.501 68.4994 306 153 306C237.501 306 306 237.501 306 153C306 68.4994 237.501 9.49949e-08 153 9.49949e-08ZM215.236 125.332C215.3 126.639 215.316 127.946 215.316 129.221C215.316 169.065 185.018 214.981 129.588 214.981C112.567 214.981 96.7247 210.008 83.4009 201.434C85.7437 201.721 88.1503 201.832 90.5887 201.832C104.709 201.832 117.698 197.035 128.01 188.939C114.83 188.684 103.705 179.982 99.8644 168.029C101.697 168.364 103.578 168.555 105.522 168.555C108.263 168.555 110.941 168.188 113.459 167.503C99.6731 164.73 89.2819 152.554 89.2819 137.955V137.588C93.3459 139.836 97.9997 141.206 102.94 141.366C94.8441 135.947 89.5369 126.735 89.5369 116.264C89.5369 110.75 91.0191 105.554 93.6169 101.107C108.487 119.34 130.672 131.325 155.725 132.616C155.199 130.401 154.944 128.106 154.944 125.731C154.944 109.108 168.427 95.5931 185.082 95.5931C193.736 95.5931 201.577 99.2587 207.076 105.124C213.945 103.753 220.384 101.267 226.201 97.8084C223.954 104.837 219.188 110.75 212.957 114.495C219.061 113.746 224.862 112.136 230.265 109.73C226.233 115.77 221.117 121.093 215.236 125.332Z" fill='black' />
</svg>
